<?xml version="1.0" encoding="UTF-8" standalone="no"?>
<!DOCTYPE svg PUBLIC "-//W3C//DTD SVG 1.1//EN" "http://www.w3.org/Graphics/SVG/1.1/DTD/svg11.dtd">
<svg width="100%" height="100%" viewBox="0 0 57 57" version="1.1" xmlns="http://www.w3.org/2000/svg" xmlns:xlink="http://www.w3.org/1999/xlink" xml:space="preserve" xmlns:serif="http://www.serif.com/" style="fill-rule:evenodd;clip-rule:evenodd;stroke-linejoin:round;stroke-miterlimit:2;">
    <path d="M56.688,28.336C56.688,43.997 43.997,56.688 28.34,56.688C12.695,56.688 0,43.997 0,28.336C0,12.715 12.695,0 28.34,0C43.997,0 56.688,12.715 56.688,28.336" style="fill:rgb(243,157,42);fill-rule:nonzero;"/>
    <g transform="matrix(3.44319,0,0,3.44319,-47.6031,-38.991)">
        <g id="Layer1">
            <path d="M23.029,24.937C25.117,24.937 26.341,23.917 26.341,22.189C26.341,21.397 26.077,20.749 25.561,20.293C25.213,19.993 24.901,19.849 24.313,19.717C24.805,19.537 25.021,19.417 25.285,19.189C25.741,18.781 25.981,18.205 25.981,17.473C25.981,15.889 24.841,14.953 22.897,14.953L19.753,14.953C18.769,14.953 18.601,14.953 17.989,14.917C18.061,15.493 18.085,16.009 18.085,16.645L18.085,23.209C18.085,24.049 18.061,24.457 17.989,24.973C18.505,24.949 18.853,24.937 19.765,24.937L23.029,24.937ZM20.437,18.805L20.437,16.921L22.525,16.921C23.209,16.921 23.581,17.257 23.581,17.845C23.581,18.433 23.185,18.805 22.549,18.805L20.437,18.805ZM20.437,20.725L22.633,20.725C23.401,20.725 23.857,21.133 23.857,21.829C23.857,22.537 23.401,22.957 22.645,22.957L20.437,22.957L20.437,20.725Z" style="fill:white;fill-rule:nonzero;"/>
        </g>
    </g>
</svg>
