<?xml version="1.0" encoding="UTF-8" standalone="no"?>
<!DOCTYPE svg PUBLIC "-//W3C//DTD SVG 1.1//EN" "http://www.w3.org/Graphics/SVG/1.1/DTD/svg11.dtd">
<svg width="100%" height="100%" viewBox="0 0 352 348" version="1.1" xmlns="http://www.w3.org/2000/svg" xmlns:xlink="http://www.w3.org/1999/xlink" xml:space="preserve" xmlns:serif="http://www.serif.com/" style="fill-rule:evenodd;clip-rule:evenodd;stroke-linecap:round;stroke-linejoin:round;stroke-miterlimit:1.5;">
    <g transform="matrix(1,0,0,1,-137.174,-611.325)">
        <g transform="matrix(1.46834,0,0,1.46834,287.334,-78.0201)">
            <g transform="matrix(0.681041,0,0,0.681041,-184.885,-49.2504)">
                <g transform="matrix(400,0,0,400,254.914,1034.86)">
                </g>
                <text x="54.914px" y="1034.86px" style="font-family:'AmericanTypewriter-CondensedLight', 'American Typewriter', serif;font-weight:300;font-stretch:condensed;font-size:400px;">{</text>
            </g>
        </g>
        <g transform="matrix(1.46834,0,0,1.46834,287.334,-78.0201)">
            <g transform="matrix(0.681041,0,0,0.681041,-239.185,-89.073)">
                <g transform="matrix(400,0,0,400,617.655,1093.78)">
                </g>
                <text x="417.655px" y="1093.78px" style="font-family:'AmericanTypewriter-CondensedLight', 'American Typewriter', serif;font-weight:300;font-stretch:condensed;font-size:400px;">}</text>
            </g>
        </g>
        <g transform="matrix(1.46834,0,0,1.46834,287.334,-78.0201)">
            <g transform="matrix(0.782613,0,0,0.782613,-113.656,273.003)">
                <circle cx="167.653" cy="402.921" r="79.937" style="fill:white;fill-opacity:0;stroke:black;stroke-width:5.44px;"/>
            </g>
        </g>
        <g transform="matrix(1.46834,0,0,1.46834,287.334,-78.0201)">
            <g transform="matrix(0.782613,0,0,0.910502,-86.9613,239.687)">
                <path d="M107.096,350.968L107.096,415.314" style="fill:none;stroke:black;stroke-width:8.36px;stroke-linecap:square;"/>
            </g>
        </g>
        <g transform="matrix(1.46834,0,0,1.46834,287.334,-78.0201)">
            <g transform="matrix(0.802705,-0.0200922,-0.0200922,0.802705,-78.5949,280.88)">
                <path d="M104.361,373.533L144.653,333.242" style="fill:none;stroke:black;stroke-width:5.44px;stroke-linecap:butt;"/>
            </g>
        </g>
        <g transform="matrix(1.46834,0,0,1.46834,287.334,-78.0201)">
            <g transform="matrix(0.782613,0,0,0.805958,-96.4838,282.161)">
                <path d="M161.89,328.583L161.89,282.487" style="fill:none;stroke:black;stroke-width:5.36px;stroke-linecap:butt;"/>
            </g>
        </g>
        <g transform="matrix(1.46834,0,0,1.46834,287.334,-78.0201)">
            <g transform="matrix(0.782613,0,0,0.874444,-96.8098,246.377)">
                <path d="M162.295,439.185L162.295,478.679" style="fill:none;stroke:black;stroke-width:5.13px;stroke-linecap:butt;"/>
            </g>
        </g>
        <g transform="matrix(1.46834,0,0,1.46834,287.334,-78.0201)">
            <g transform="matrix(1.14757,0,0,1.14757,6.89031,88.4207)">
                <circle cx="20.31" cy="363.4" r="3.022" style="fill:white;fill-opacity:0;stroke:black;stroke-width:2.47px;stroke-linecap:butt;"/>
            </g>
        </g>
        <g transform="matrix(1.46834,0,0,1.46834,287.334,-78.0201)">
            <g transform="matrix(1.14757,0,0,1.14757,-86.6702,171.052)">
                <circle cx="20.31" cy="363.4" r="3.022" style="fill:white;fill-opacity:0;stroke:black;stroke-width:2.47px;stroke-linecap:butt;"/>
            </g>
        </g>
        <g transform="matrix(1.46834,0,0,1.46834,287.334,-78.0201)">
            <g transform="matrix(1.14757,0,0,1.14757,6.86867,252.288)">
                <circle cx="20.31" cy="363.4" r="3.022" style="fill:white;fill-opacity:0;stroke:black;stroke-width:2.47px;stroke-linecap:butt;"/>
            </g>
        </g>
        <g transform="matrix(1.46834,0,0,1.46834,287.334,-78.0201)">
            <g transform="matrix(0.782613,0,0,0.782613,-95.8874,288.606)">
                <path d="M118.941,382.964L48.782,382.964" style="fill:none;stroke:black;stroke-width:5.44px;stroke-linecap:butt;"/>
            </g>
        </g>
        <g transform="matrix(1.46834,0,0,1.46834,287.334,-78.0201)">
            <g transform="matrix(0.754066,-0.0285466,-0.0285466,0.754066,-69.7936,303.113)">
                <path d="M104.348,395.944L150.144,441.739" style="fill:none;stroke:black;stroke-width:5.87px;stroke-linecap:butt;"/>
            </g>
        </g>
        <g transform="matrix(1.46834,0,0,1.46834,287.334,-78.0201)">
            <g transform="matrix(0.18501,0.202915,-0.933875,0.851468,377.052,234.642)">
                <path d="M164.5,416.326L164.5,409.825L186.5,414.641L164.5,419.456C164.5,419.456 164.5,416.326 164.5,416.326Z" style="stroke:black;stroke-width:4.65px;stroke-linecap:butt;"/>
            </g>
        </g>
    </g>
</svg>
